<?xml version="1.0" encoding="UTF-8" standalone="no"?>
<!-- Created with Inkscape (http://www.inkscape.org/) -->

<svg
   width="179.71507mm"
   height="263.65002mm"
   viewBox="0 0 179.71507 263.65002"
   version="1.1"
   id="svg1"
   xml:space="preserve"
   inkscape:version="1.4.2 (ebf0e940, 2025-05-08)"
   sodipodi:docname="BIG.svg"
   xmlns:inkscape="http://www.inkscape.org/namespaces/inkscape"
   xmlns:sodipodi="http://sodipodi.sourceforge.net/DTD/sodipodi-0.dtd"
   xmlns="http://www.w3.org/2000/svg"
   xmlns:svg="http://www.w3.org/2000/svg"><sodipodi:namedview
     id="namedview1"
     pagecolor="#ffffff"
     bordercolor="#000000"
     borderopacity="0.25"
     inkscape:showpageshadow="2"
     inkscape:pageopacity="0.0"
     inkscape:pagecheckerboard="0"
     inkscape:deskcolor="#d1d1d1"
     inkscape:document-units="mm"
     inkscape:zoom="2.9572968"
     inkscape:cx="500.45703"
     inkscape:cy="831.16445"
     inkscape:window-width="2560"
     inkscape:window-height="1381"
     inkscape:window-x="1512"
     inkscape:window-y="496"
     inkscape:window-maximized="1"
     inkscape:current-layer="layer1"
     showgrid="false" /><defs
     id="defs1"><rect
       x="433.22415"
       y="820.3606"
       width="147.48056"
       height="61.88916"
       id="rect2" /><rect
       x="401.62115"
       y="848.01318"
       width="168.54921"
       height="81.641022"
       id="rect1" /></defs><g
     inkscape:label="Calque 1"
     inkscape:groupmode="layer"
     id="layer1"
     transform="translate(-20.200592,-10.493837)"><path
       style="fill:#000000;stroke-width:0.788864"
       d="M 95.895322,269.14062 C 92.557848,257.50932 92.936602,245.1157 90.988544,233.19165 88.634012,213.1188 85.801799,191.27218 71.080291,176.04036 59.338524,162.19872 39.627554,160.39544 26.38296,148.71209 18.577708,141.45836 17.492571,126.4615 27.019637,120.13031 37.743843,111.55159 51.679474,108.15199 61.882359,98.733342 72.447963,90.382722 82.466949,80.024824 86.423792,66.877264 87.646346,55.215087 78.409944,44.628014 81.590103,32.77012 83.79316,19.246387 97.489483,7.183599 111.5499,11.319537 c 17.27902,3.738464 25.57686,24.890594 19.74004,40.63582 -4.12197,11.605411 -6.8244,24.371698 -2.49065,36.352598 7.30378,24.139865 19.79017,46.435335 35.78275,65.883575 11.16032,14.83283 24.31781,28.09369 35.00727,43.27358 2.6968,9.41675 -12.05031,4.33662 -17.38354,5.53545 -14.05303,0.31569 -29.03627,2.29792 -40.00257,11.9739 -11.36387,9.11176 -21.13763,20.45558 -28.51928,32.99924 -4.09968,8.15281 -5.02274,18.15493 -11.19886,25.06363 -2.90107,3.36873 -5.378476,-1.83692 -6.589738,-3.89671 z m 3.72306,3.59224 c 8.350468,-2.62342 8.255968,-16.2097 12.524038,-23.52533 7.42568,-13.68617 18.23756,-25.63065 30.46568,-35.25145 9.75293,-8.26249 22.50851,-11.02829 34.97735,-11.37123 5.89616,-2.38159 23.02548,4.3714 21.11711,-5.35489 -12.66676,-17.18027 -27.66374,-32.54804 -40.13892,-49.91284 -14.80535,-18.8494 -25.8739,-40.76961 -31.88732,-63.955886 -3.91384,-13.534803 3.38218,-26.339857 5.36983,-39.419047 1.82733,-14.262857 -7.83956,-30.66614 -23.06608,-31.780329 -12.051796,-2.3259781 -22.716168,7.532788 -25.559835,18.677848 -3.643407,10.641477 2.412521,20.627001 4.461751,30.825384 1.1705,10.086784 -6.491856,18.298489 -11.97233,25.936768 -10.92849,11.505941 -24.042728,20.949532 -38.618022,27.231742 -7.754757,4.30076 -18.071471,10.74997 -15.383102,21.20532 -0.155811,11.08541 11.013556,16.60154 19.653946,20.67748 12.6312,5.59557 26.071335,11.35392 34.166593,23.23825 13.625094,16.96469 14.625048,39.49301 17.355683,60.10661 1.264388,9.24298 1.366068,18.74049 3.674163,27.77279 0.76478,1.66052 0.973232,4.06106 2.859465,4.89881 z"
       id="path1"
       sodipodi:nodetypes="ccccccccccccccccccccccccccccccccccccc"
       inkscape:label="prise" /><circle
       style="display:inline;fill:#c1c1c1;fill-opacity:1;stroke:#000000;stroke-width:0.997913"
       id="path2"
       cx="166.04123"
       cy="-1.1138026"
       r="3.5577099"
       transform="rotate(53.057538)"
       inkscape:label="insert" /><circle
       style="display:inline;fill:#c1c1c1;fill-opacity:1;stroke:#000000;stroke-width:0.788013;stroke-opacity:1"
       id="path4-7-4-9"
       cx="114.741"
       cy="-51.226025"
       r="2.6259286"
       transform="rotate(53.057538)"
       inkscape:label="trou vis haut" /><circle
       style="display:inline;fill:#c1c1c1;fill-opacity:1;stroke:#000000;stroke-width:0.788013;stroke-opacity:1"
       id="path4-7"
       cx="257.48129"
       cy="-27.612225"
       r="2.6259286"
       transform="rotate(53.057538)"
       inkscape:label="trou vis droite" /><circle
       style="display:inline;fill:#c1c1c1;fill-opacity:1;stroke:#000000;stroke-width:0.788013;stroke-opacity:1"
       id="path4-7-4"
       cx="255.30061"
       cy="58.383053"
       r="2.6259286"
       transform="rotate(53.057538)"
       inkscape:label="trou vis bas" /><text
       xml:space="preserve"
       style="font-style:normal;font-variant:normal;font-weight:500;font-stretch:normal;font-size:12.7px;font-family:'Lucida Grande';-inkscape-font-specification:'Lucida Grande Medium';text-align:start;writing-mode:lr-tb;direction:ltr;text-anchor:start;fill:#000000;fill-opacity:1;stroke-width:1.265"
       x="-40.52396"
       y="267.11264"
       id="text2"
       transform="rotate(-41.2205)"
       inkscape:label="label-down"><tspan
         sodipodi:role="line"
         id="tspan2"
         style="font-size:12.7px;text-align:center;text-anchor:middle;stroke-width:1.265"
         x="-40.52396"
         y="267.11264">M1</tspan></text><text
       xml:space="preserve"
       style="font-style:normal;font-variant:normal;font-weight:500;font-stretch:normal;font-size:12.7px;font-family:'Lucida Grande';-inkscape-font-specification:'Lucida Grande Medium';text-align:start;writing-mode:lr-tb;direction:ltr;text-anchor:start;fill:#000000;fill-opacity:1;stroke-width:1.265"
       x="-191.52737"
       y="75.94593"
       id="text2-3"
       transform="rotate(-120.00974)"
       inkscape:label="label-left"><tspan
         sodipodi:role="line"
         id="tspan2-9"
         style="font-size:12.7px;text-align:center;text-anchor:middle;stroke-width:1.265"
         x="-191.52737"
         y="75.94593">M1</tspan></text><text
       xml:space="preserve"
       style="font-style:normal;font-variant:normal;font-weight:500;font-stretch:normal;font-size:12.7px;font-family:'Lucida Grande';-inkscape-font-specification:'Lucida Grande Medium';text-align:start;writing-mode:lr-tb;direction:ltr;text-anchor:start;fill:#000000;fill-opacity:1;stroke-width:1.265"
       x="1.8805587"
       y="-102.22623"
       id="text2-3-4"
       transform="rotate(144.96715)"
       inkscape:label="label-up"><tspan
         sodipodi:role="line"
         id="tspan2-9-3"
         style="font-size:12.7px;text-align:center;text-anchor:middle;stroke-width:1.265"
         x="1.8805581"
         y="-102.22623">M1</tspan></text><text
       xml:space="preserve"
       style="font-style:normal;font-variant:normal;font-weight:500;font-stretch:normal;font-size:12.7px;font-family:'Lucida Grande';-inkscape-font-specification:'Lucida Grande Medium';text-align:start;writing-mode:lr-tb;direction:ltr;text-anchor:start;fill:#000000;fill-opacity:1;stroke-width:1.265"
       x="200.24272"
       y="38.101517"
       id="text2-1"
       transform="rotate(60.565453)"
       inkscape:label="label-right"><tspan
         sodipodi:role="line"
         id="tspan2-1"
         style="font-size:12.7px;text-align:center;text-anchor:middle;stroke-width:1.265"
         x="200.24272"
         y="38.101517">M1</tspan></text></g></svg>
