<?xml version="1.0" encoding="UTF-8" standalone="no"?>
<!-- Created with Inkscape (http://www.inkscape.org/) -->

<svg
   width="179.54228mm"
   height="263.63519mm"
   viewBox="0 0 179.54228 263.63519"
   version="1.1"
   id="svg1"
   xml:space="preserve"
   inkscape:version="1.4.2 (ebf0e940, 2025-05-08)"
   sodipodi:docname="BIG.svg"
   xmlns:inkscape="http://www.inkscape.org/namespaces/inkscape"
   xmlns:sodipodi="http://sodipodi.sourceforge.net/DTD/sodipodi-0.dtd"
   xmlns="http://www.w3.org/2000/svg"
   xmlns:svg="http://www.w3.org/2000/svg"><sodipodi:namedview
     id="namedview1"
     pagecolor="#ffffff"
     bordercolor="#000000"
     borderopacity="0.25"
     inkscape:showpageshadow="2"
     inkscape:pageopacity="0.0"
     inkscape:pagecheckerboard="0"
     inkscape:deskcolor="#d1d1d1"
     inkscape:document-units="mm"
     inkscape:zoom="0.75942214"
     inkscape:cx="401.62116"
     inkscape:cy="759.12983"
     inkscape:window-width="1512"
     inkscape:window-height="920"
     inkscape:window-x="0"
     inkscape:window-y="34"
     inkscape:window-maximized="1"
     inkscape:current-layer="layer1"
     showgrid="false" /><defs
     id="defs1" /><g
     inkscape:label="Calque 1"
     inkscape:groupmode="layer"
     id="layer1"
     transform="translate(-20.222813,-10.483923)"><path
       style="fill:#000000"
       d="m 266.17083,217.60316 c -14.29274,-5.56897 -26.4996,-15.47097 -40.02028,-22.66591 -22.0502,-13.04448 -46.25602,-26.96978 -72.92411,-23.82473 -22.97735,1.20812 -39.93663,19.69961 -61.891926,24.08107 -13.310253,2.29897 -29.266725,-8.1265 -28.332992,-22.59691 -0.413116,-17.40404 6.863254,-34.0682 5.202701,-51.59172 C 67.899294,103.93607 65.150333,85.876517 54.931667,71.78721 44.110549,61.596163 26.339601,62.777828 16.82484,50.462381 4.879682,37.852649 3.2362176,14.775247 18.20733,3.7736208 35.249975,-10.778982 62.953839,-2.89872 74.347918,15.081746 c 8.536715,13.071227 19.334465,25.602708 34.745022,30.435565 29.95314,11.177684 62.02737,15.71242 93.92369,14.524423 23.53022,0.139587 47.0094,-2.942273 70.52793,-2.061284 11.56743,4.513951 -4.88329,15.482763 -7.77105,21.781696 -10.47639,14.413663 -19.98677,31.045494 -18.65313,49.536514 0.45929,18.45854 4.39082,37.02813 11.36977,54.10716 5.07221,10.39666 14.44937,19.01052 16.67201,30.54543 1.16862,5.51313 -5.9838,4.01268 -8.99133,3.65191 z m 6.48229,-0.995 c 3.76887,-10.43583 -10.00421,-20.77674 -14.10286,-30.70013 -8.09724,-18.00104 -11.83706,-38.07887 -12.1458,-57.79993 -0.84031,-16.1817 6.16875,-31.169029 15.40077,-44.00612 2.12749,-7.775112 22.095,-19.86118 10.82105,-25.407952 -27.05458,-0.423652 -54.07136,2.89476 -81.16485,2.136183 C 161.08096,61.280992 130.47425,55.60474 102.47389,43.858343 85.81892,37.408423 78.510607,20.214959 66.848264,8.1639189 53.869157,-4.6346806 29.902431,-7.4865887 17.082733,7.0120805 5.4797068,17.378503 7.2295919,35.705463 16.284,47.134031 c 7.932278,11.848207 22.653562,13.411677 34.511779,19.179033 11.070689,6.567749 13.465644,20.602279 16.958349,31.996112 3.208025,19.858564 2.657389,40.337064 -2.203488,59.860524 -1.619836,11.12355 -3.041126,26.4809 9.567167,31.80113 11.058919,8.6723 25.201083,1.64621 35.948343,-3.93591 15.34517,-8.43919 31.47586,-17.56908 49.67841,-16.60353 27.57332,-0.70833 51.05914,15.58828 73.94354,28.66887 10.29191,5.82491 19.94737,13.01782 30.82855,17.62842 2.26193,0.5043 4.84278,2.13806 7.13647,0.87948 z"
       id="path1"
       sodipodi:nodetypes="ccccccccccccccccccccccccccccccccccccc"
       transform="matrix(0.47637142,0.62878946,-0.62878946,0.47637142,105.59279,-1.9215976)"
       inkscape:label="prise" /><circle
       style="display:inline;fill:#c1c1c1;fill-opacity:1;stroke:#000000;stroke-width:1.265"
       id="path2"
       cx="131.60229"
       cy="107.5688"
       r="4.5099173"
       transform="matrix(0.47637142,0.62878946,-0.62878946,0.47637142,105.59279,-1.9215976)"
       inkscape:label="insert" /><circle
       style="display:inline;fill:#c1c1c1;fill-opacity:1;stroke:#000000;stroke-width:0.998922;stroke-opacity:1"
       id="path4-7-4-9"
       cx="66.571785"
       cy="44.044235"
       r="3.3287482"
       transform="matrix(0.47637142,0.62878946,-0.62878946,0.47637142,105.59279,-1.9215976)"
       inkscape:label="trou vis haut" /><circle
       style="display:inline;fill:#c1c1c1;fill-opacity:1;stroke:#000000;stroke-width:0.998922;stroke-opacity:1"
       id="path4-7"
       cx="247.51596"
       cy="73.97818"
       r="3.3287482"
       transform="matrix(0.47637142,0.62878946,-0.62878946,0.47637142,105.59279,-1.9215976)"
       inkscape:label="trou vis droite" /><circle
       style="display:inline;fill:#c1c1c1;fill-opacity:1;stroke:#000000;stroke-width:0.998922;stroke-opacity:1"
       id="path4-7-4"
       cx="244.75162"
       cy="182.98976"
       r="3.3287482"
       transform="matrix(0.47637142,0.62878946,-0.62878946,0.47637142,105.59279,-1.9215976)"
       inkscape:label="trou vis bas" /></g></svg>
