<?xml version="1.0" encoding="UTF-8" standalone="no"?>
<!-- Created with Inkscape (http://www.inkscape.org/) -->

<svg
   width="62.347168mm"
   height="68.974495mm"
   viewBox="0 0 62.347168 68.974495"
   version="1.1"
   id="svg1"
   xml:space="preserve"
   sodipodi:docname="FOOT.svg"
   inkscape:version="1.4.2 (ebf0e940, 2025-05-08)"
   xmlns:inkscape="http://www.inkscape.org/namespaces/inkscape"
   xmlns:sodipodi="http://sodipodi.sourceforge.net/DTD/sodipodi-0.dtd"
   xmlns="http://www.w3.org/2000/svg"
   xmlns:svg="http://www.w3.org/2000/svg"><sodipodi:namedview
     id="namedview1"
     pagecolor="#ffffff"
     bordercolor="#000000"
     borderopacity="0.25"
     inkscape:showpageshadow="2"
     inkscape:pageopacity="0.0"
     inkscape:pagecheckerboard="0"
     inkscape:deskcolor="#d1d1d1"
     inkscape:document-units="mm"
     inkscape:zoom="2.1166912"
     inkscape:cx="95.431965"
     inkscape:cy="142.67551"
     inkscape:window-width="2560"
     inkscape:window-height="1381"
     inkscape:window-x="1512"
     inkscape:window-y="496"
     inkscape:window-maximized="1"
     inkscape:current-layer="svg1" /><defs
     id="defs1" /><path
     style="fill:none;stroke:#000000;stroke-opacity:1"
     d="M 37.223937,68.459132 C 34.504305,68.344202 31.724453,67.403956 25.999404,64.662595 22.572635,63.021735 12.02303,55.635495 10.401811,53.742042 10.011619,53.286331 9.403807,52.725355 9.0511174,52.495429 7.8991975,51.744471 5.3323619,48.710374 4.3082592,46.889191 3.7570409,45.908947 3.0097994,44.606924 2.6477213,43.995804 0.78939636,40.859294 -0.06187351,34.135925 0.90327654,30.218089 1.129649,29.299175 1.2955625,28.405072 1.271974,28.231192 1.2484309,28.057304 1.4556883,27.43584 1.732648,26.850143 2.0096067,26.264446 2.2136151,25.640185 2.1860001,25.462897 1.9936435,24.22797 6.1617968,18.705191 8.9558921,16.492828 9.4803151,16.07759 10.11279,15.496492 10.361393,15.201497 c 0.248601,-0.294994 1.316498,-1.175056 2.373112,-1.955693 1.056613,-0.780638 2.190369,-1.624672 2.519464,-1.875633 1.255425,-0.957351 4.247088,-2.9269868 4.50735,-2.967526 0.149704,-0.023318 0.393476,-0.2084476 0.541726,-0.4114006 0.148252,-0.202952 0.962826,-0.7366521 1.810183,-1.1860018 0.847349,-0.4493481 2.482429,-1.3462587 3.633515,-1.9931348 8.895975,-4.99928752 12.462292,-5.47135382 17.792358,-2.3551399 0.869765,0.5085032 1.675462,0.9098979 1.790446,0.8919877 0.60868,-0.09481 4.796431,3.4500789 6.462246,5.4702366 1.334997,1.6189638 3.378182,4.6778128 3.695757,5.5328858 0.180962,0.487277 0.460381,1.005703 0.620909,1.15206 0.338194,0.308335 2.033688,3.932927 2.958047,6.323683 1.984632,5.132992 3.351424,15.056332 2.52752,18.35047 -0.134159,0.536361 -0.323029,1.469516 -0.419716,2.073679 -0.781952,4.885882 -3.852505,11.127244 -7.974384,16.209139 -3.291306,4.057885 -3.367105,4.131397 -6.719998,6.517409 -4.089458,2.910172 -5.975132,3.61926 -9.255991,3.480614 z"
     id="path6"
     sodipodi:nodetypes="ssssssscssssssssssssssssscsss"
     inkscape:label="prise" /><circle
     style="fill:#c1c1c1;fill-opacity:1;stroke:#000000;stroke-width:1.265;stroke-dasharray:none;stroke-opacity:1"
     id="path8"
     cx="42.327007"
     cy="34.167942"
     r="6.5624237"
     inkscape:label="insert" /><text
     xml:space="preserve"
     style="font-weight:500;font-size:12.7px;font-family:'Lucida Grande';-inkscape-font-specification:'Lucida Grande Medium';text-align:start;writing-mode:lr-tb;direction:ltr;text-anchor:start;fill:#000000;stroke-width:1.265"
     x="37.951717"
     y="80.240181"
     id="text1"
     inkscape:label="label-left"><tspan
       sodipodi:role="line"
       id="tspan1"
       style="text-align:center;text-anchor:middle;stroke-width:1.265"
       x="37.951717"
       y="80.240181">P1</tspan></text><text
     xml:space="preserve"
     style="font-weight:500;font-size:12.7px;font-family:'Lucida Grande';-inkscape-font-specification:'Lucida Grande Medium';text-align:start;writing-mode:lr-tb;direction:ltr;text-anchor:start;fill:#000000;stroke-width:1.265"
     x="-36.494732"
     y="11.116401"
     id="text1-8"
     inkscape:label="label-right"
     transform="scale(-1)"><tspan
       sodipodi:role="line"
       id="tspan1-6"
       style="text-align:center;text-anchor:middle;stroke-width:1.265"
       x="-36.494732"
       y="11.116401">P1</tspan></text><text
     xml:space="preserve"
     style="font-weight:500;font-size:12.7px;font-family:'Lucida Grande';-inkscape-font-specification:'Lucida Grande Medium';text-align:start;writing-mode:lr-tb;direction:ltr;text-anchor:start;fill:#000000;stroke-width:1.265"
     x="34.536884"
     y="12.06967"
     id="text1-8-7"
     inkscape:label="label-down"
     transform="rotate(90)"><tspan
       sodipodi:role="line"
       id="tspan1-6-9"
       style="text-align:center;text-anchor:middle;stroke-width:1.265"
       x="34.536884"
       y="12.06967">P1</tspan></text><text
     xml:space="preserve"
     style="font-weight:500;font-size:12.7px;font-family:'Lucida Grande';-inkscape-font-specification:'Lucida Grande Medium';text-align:start;writing-mode:lr-tb;direction:ltr;text-anchor:start;fill:#000000;stroke-width:1.265"
     x="-34.922543"
     y="73.813377"
     id="text1-8-7-6"
     inkscape:label="label-up"
     transform="rotate(-90)"><tspan
       sodipodi:role="line"
       id="tspan1-6-9-3"
       style="text-align:center;text-anchor:middle;stroke-width:1.265"
       x="-34.922543"
       y="73.813377">P1</tspan></text></svg>
