<svg xmlns="http://www.w3.org/2000/svg" viewBox="1932.0826300657384 -707.5 696.4213262982562 696.4213262982562">
  <g id="arrows">
<polygon points="2260.606601717798,-198.1066017177982 2000,-437.5 2239.393398282202,-176.8933982822018" fill="#e63946" />
<circle cx="2000" cy="-437.5" r="15" fill="none" stroke="#e63946" stroke-width="2" />
<polygon points="2385.606601717798,-448.1066017177982 2125,-687.5 2364.393398282202,-426.8933982822018" fill="#e63946" />
<circle cx="2125" cy="-687.5" r="15" fill="none" stroke="#e63946" stroke-width="2" />
</g>
  <g id="holds">
<g transform="translate(2250, -187.5) rotate(135) scale(1.7448353537325574) translate(-100.6462320977038, -132.07123726755938)" data-source="m1m2" data-hold="1" data-composed="1" class="hold"><path fill="#e63946" d="m 266.17083,217.60316 c -14.29274,-5.56897 -26.4996,-15.47097 -40.02028,-22.66591 -22.0502,-13.04448 -46.25602,-26.96978 -72.92411,-23.82473 -22.97735,1.20812 -39.93663,19.69961 -61.891926,24.08107 -13.310253,2.29897 -29.266725,-8.1265 -28.332992,-22.59691 -0.413116,-17.40404 6.863254,-34.0682 5.202701,-51.59172 C 67.899294,103.93607 65.150333,85.876517 54.931667,71.78721 44.110549,61.596163 26.339601,62.777828 16.82484,50.462381 4.879682,37.852649 3.2362176,14.775247 18.20733,3.7736208 35.249975,-10.778982 62.953839,-2.89872 74.347918,15.081746 c 8.536715,13.071227 19.334465,25.602708 34.745022,30.435565 29.95314,11.177684 62.02737,15.71242 93.92369,14.524423 23.53022,0.139587 47.0094,-2.942273 70.52793,-2.061284 11.56743,4.513951 -4.88329,15.482763 -7.77105,21.781696 -10.47639,14.413663 -19.98677,31.045494 -18.65313,49.536514 0.45929,18.45854 4.39082,37.02813 11.36977,54.10716 5.07221,10.39666 14.44937,19.01052 16.67201,30.54543 1.16862,5.51313 -5.9838,4.01268 -8.99133,3.65191 z" transform="matrix(0.47637142,0.62878946,-0.62878946,0.47637142,105.59279,-1.9215976)" xmlns="http://www.w3.org/2000/svg"/>
<circle style="display:inline;fill:#c1c1c1;fill-opacity:1;stroke:#000000;stroke-width:1.265" cx="131.60229" cy="107.5688" r="4.5099173" transform="matrix(0.47637142,0.62878946,-0.62878946,0.47637142,105.59279,-1.9215976)" xmlns="http://www.w3.org/2000/svg"/>
<circle style="display:inline;fill:#c1c1c1;fill-opacity:1;stroke:#000000;stroke-width:0.998922;stroke-opacity:1" cx="66.571785" cy="44.044235" r="3.3287482" transform="matrix(0.47637142,0.62878946,-0.62878946,0.47637142,105.59279,-1.9215976)" xmlns="http://www.w3.org/2000/svg"/>
<circle style="display:inline;fill:#c1c1c1;fill-opacity:1;stroke:#000000;stroke-width:0.998922;stroke-opacity:1" cx="247.51596" cy="73.97818" r="3.3287482" transform="matrix(0.47637142,0.62878946,-0.62878946,0.47637142,105.59279,-1.9215976)" xmlns="http://www.w3.org/2000/svg"/>
<circle style="display:inline;fill:#c1c1c1;fill-opacity:1;stroke:#000000;stroke-width:0.998922;stroke-opacity:1" cx="244.75162" cy="182.98976" r="3.3287482" transform="matrix(0.47637142,0.62878946,-0.62878946,0.47637142,105.59279,-1.9215976)" xmlns="http://www.w3.org/2000/svg"/></g>
<g transform="translate(2375, -437.5) rotate(135) scale(1.7448353537325574) translate(-100.6462320977038, -132.07123726755938)" data-source="m1m2" data-hold="2" data-composed="2" class="hold"><path fill="#e63946" d="m 266.17083,217.60316 c -14.29274,-5.56897 -26.4996,-15.47097 -40.02028,-22.66591 -22.0502,-13.04448 -46.25602,-26.96978 -72.92411,-23.82473 -22.97735,1.20812 -39.93663,19.69961 -61.891926,24.08107 -13.310253,2.29897 -29.266725,-8.1265 -28.332992,-22.59691 -0.413116,-17.40404 6.863254,-34.0682 5.202701,-51.59172 C 67.899294,103.93607 65.150333,85.876517 54.931667,71.78721 44.110549,61.596163 26.339601,62.777828 16.82484,50.462381 4.879682,37.852649 3.2362176,14.775247 18.20733,3.7736208 35.249975,-10.778982 62.953839,-2.89872 74.347918,15.081746 c 8.536715,13.071227 19.334465,25.602708 34.745022,30.435565 29.95314,11.177684 62.02737,15.71242 93.92369,14.524423 23.53022,0.139587 47.0094,-2.942273 70.52793,-2.061284 11.56743,4.513951 -4.88329,15.482763 -7.77105,21.781696 -10.47639,14.413663 -19.98677,31.045494 -18.65313,49.536514 0.45929,18.45854 4.39082,37.02813 11.36977,54.10716 5.07221,10.39666 14.44937,19.01052 16.67201,30.54543 1.16862,5.51313 -5.9838,4.01268 -8.99133,3.65191 z" transform="matrix(0.47637142,0.62878946,-0.62878946,0.47637142,105.59279,-1.9215976)" xmlns="http://www.w3.org/2000/svg"/>
<circle style="display:inline;fill:#c1c1c1;fill-opacity:1;stroke:#000000;stroke-width:1.265" cx="131.60229" cy="107.5688" r="4.5099173" transform="matrix(0.47637142,0.62878946,-0.62878946,0.47637142,105.59279,-1.9215976)" xmlns="http://www.w3.org/2000/svg"/>
<circle style="display:inline;fill:#c1c1c1;fill-opacity:1;stroke:#000000;stroke-width:0.998922;stroke-opacity:1" cx="66.571785" cy="44.044235" r="3.3287482" transform="matrix(0.47637142,0.62878946,-0.62878946,0.47637142,105.59279,-1.9215976)" xmlns="http://www.w3.org/2000/svg"/>
<circle style="display:inline;fill:#c1c1c1;fill-opacity:1;stroke:#000000;stroke-width:0.998922;stroke-opacity:1" cx="247.51596" cy="73.97818" r="3.3287482" transform="matrix(0.47637142,0.62878946,-0.62878946,0.47637142,105.59279,-1.9215976)" xmlns="http://www.w3.org/2000/svg"/>
<circle style="display:inline;fill:#c1c1c1;fill-opacity:1;stroke:#000000;stroke-width:0.998922;stroke-opacity:1" cx="244.75162" cy="182.98976" r="3.3287482" transform="matrix(0.47637142,0.62878946,-0.62878946,0.47637142,105.59279,-1.9215976)" xmlns="http://www.w3.org/2000/svg"/></g>
</g>
</svg>